<?xml version="1.0" encoding="utf-8"?>
<!-- Generator: Adobe Illustrator 27.5.0, SVG Export Plug-In . SVG Version: 6.00 Build 0)  -->
<svg version="1.1" id="Capa_1" xmlns="http://www.w3.org/2000/svg" xmlns:xlink="http://www.w3.org/1999/xlink" x="0px" y="0px"
	 viewBox="0 0 388.836 425.196" style="enable-background:new 0 0 388.836 425.196;" xml:space="preserve">
<rect y="0" style="fill:#FFFFFF;" width="388.836" height="425.196"/>
<ellipse style="fill:#A7A9AC;" cx="194.418" cy="393.998" rx="93.994" ry="15"/>
<g>
	<path style="fill:#A7A9AC;" d="M194.419,24.998c-25.776,0-46.673,20.897-46.673,46.673c0,25.778,20.896,46.673,46.673,46.673
		c25.777,0,46.673-20.895,46.673-46.673C241.091,45.895,220.196,24.998,194.419,24.998z M194.419,109.858
		c-21.09,0-38.187-17.097-38.187-38.188c0-21.089,17.097-38.187,38.187-38.187c21.091,0,38.188,17.098,38.188,38.187
		C232.606,92.761,215.509,109.858,194.419,109.858z"/>
	<path style="fill:#BCBEC0;" d="M194.419,24.998c-25.776,0-46.673,20.897-46.673,46.673c0,25.778,20.896,46.673,46.673,46.673
		c25.777,0,46.673-20.895,46.673-46.673C241.091,45.895,220.196,24.998,194.419,24.998z M194.419,114.058
		c-23.409,0-42.387-18.977-42.387-42.387c0-23.411,18.978-42.387,42.387-42.387c23.41,0,42.388,18.976,42.388,42.387
		C236.806,95.081,217.829,114.058,194.419,114.058z"/>
	<g>
		<rect x="175.518" y="100.901" style="fill:#A7A9AC;" width="37.801" height="29.7"/>
		<path style="fill:#FFFFFF;" d="M185.523,106.788c0.976,2.675,2.359,5.174,4.527,7.075c2.629,2.307,6.063,3.641,9.567,3.736
			c3.589,0.096,7.169-0.797,9.993-2.639v-11.781h-24.759C184.901,104.365,185.073,105.556,185.523,106.788z"/>
		<path style="fill:#D1D3D4;" d="M200.333,122.144c-5.599-0.373-11.384-2.285-15.24-6.575c-2.428-2.697-4.434-5.81-5.493-9.313
			c-0.57-1.886-0.787-3.627-0.857-5.355h-3.224v29.7h37.801v-11.392C209.522,121.386,204.972,122.454,200.333,122.144z"/>
		<path style="fill:#D3D5D6;" d="M213.319,100.901c0,2.386-8.462,4.322-18.9,4.322c-10.439,0-18.9-1.936-18.9-4.322
			c0-2.387,8.462-4.322,18.9-4.322C204.857,96.579,213.319,98.514,213.319,100.901z"/>
	</g>
	
		<ellipse transform="matrix(0.3985 -0.9171 0.9171 0.3985 -122.9489 335.6212)" style="fill:#005462;" cx="194.418" cy="261.552" rx="136.476" ry="136.476"/>
	
		<ellipse transform="matrix(0.7071 -0.7071 0.7071 0.7071 -128.0017 214.0818)" style="fill:#757679;" cx="194.419" cy="261.553" rx="112.76" ry="112.76"/>
	<path style="fill:#FFFFFF;" d="M298.831,261.553c0,57.665-46.746,104.412-104.412,104.412
		c-57.665,0-104.412-46.746-104.412-104.412c0-57.665,46.747-104.413,104.412-104.413
		C252.085,157.14,298.831,203.888,298.831,261.553z"/>
	<g>
		<g style="opacity:0.5;">
			<g>
				<g>
					<g>
						<path style="fill:#4F2E0E;" d="M288.253,262.735l0.031-1.183h10.069l-0.031,1.308L288.253,262.735z"/>
						<path style="fill:#4F2E0E;" d="M288.196,264.977l0.03-1.183l10.066,0.237l-0.033,1.307L288.196,264.977z"/>
						<path style="fill:#4F2E0E;" d="M288.098,267.214c0,0,0.023-0.294,0.045-0.589c0.029-0.294,0.027-0.591,0.027-0.591
							l10.058,0.473c0,0,0.001,0.328-0.03,0.653c-0.025,0.326-0.048,0.652-0.048,0.652L288.098,267.214z"/>
						<path style="fill:#4F2E0E;" d="M287.927,269.449l0.09-1.18l10.044,0.711l-0.099,1.305L287.927,269.449z"/>
						<path style="fill:#4F2E0E;" d="M284.359,271.596c0,0,0.049-0.377,0.098-0.754c0.028-0.379,0.058-0.758,0.058-0.758
							l13.367,1.25c0,0-0.034,0.434-0.068,0.87c-0.055,0.433-0.109,0.866-0.109,0.866L284.359,271.596z"/>
						<path style="fill:#4F2E0E;" d="M287.426,274.079l0.149-1.173l9.997,1.206l-0.165,1.299L287.426,274.079z"/>
						<path style="fill:#4F2E0E;" d="M287.122,276.298c0,0,0.06-0.29,0.098-0.583c0.037-0.294,0.074-0.587,0.074-0.587l9.965,1.444
							c0,0-0.042,0.325-0.083,0.649c-0.043,0.324-0.107,0.646-0.107,0.646L287.122,276.298z"/>
						<path style="fill:#4F2E0E;" d="M286.727,278.503l0.208-1.164l9.928,1.682l-0.23,1.289L286.727,278.503z"/>
						<path style="fill:#4F2E0E;" d="M286.323,280.706c0,0,0.069-0.287,0.115-0.58c0.052-0.291,0.104-0.582,0.104-0.582l9.885,1.919
							c0,0-0.058,0.322-0.116,0.645c-0.052,0.323-0.128,0.642-0.128,0.642L286.323,280.706z"/>
						<path style="fill:#4F2E0E;" d="M282.487,282.396l0.343-1.48l13.117,2.859l-0.393,1.702L282.487,282.396z"/>
						<path style="fill:#4F2E0E;" d="M285.264,285.24c0,0,0.083-0.284,0.144-0.573c0.066-0.288,0.132-0.576,0.132-0.576l9.777,2.41
							c0,0-0.074,0.319-0.148,0.638c-0.069,0.32-0.16,0.635-0.16,0.635L285.264,285.24z"/>
						<path style="fill:#4F2E0E;" d="M284.651,287.394l0.323-1.137l9.716,2.644l-0.357,1.26L284.651,287.394z"/>
						<path style="fill:#4F2E0E;" d="M284.037,289.548l0.326-1.136l9.649,2.877l-0.364,1.258L284.037,289.548z"/>
						<path style="fill:#4F2E0E;" d="M283.318,291.669l0.379-1.12l9.577,3.108l-0.419,1.241L283.318,291.669z"/>
						<path style="fill:#4F2E0E;" d="M279.349,292.895c0,0,0.139-0.353,0.254-0.715c0.121-0.36,0.243-0.72,0.243-0.72l12.671,4.436
							c0,0-0.14,0.414-0.28,0.827c-0.135,0.415-0.294,0.822-0.293,0.822L279.349,292.895z"/>
						<path style="fill:#4F2E0E;" d="M281.715,296.039l0.434-1.1l9.41,3.583l-0.48,1.219L281.715,296.039z"/>
						<path style="fill:#4F2E0E;" d="M280.893,298.122l0.435-1.099l9.321,3.809l-0.484,1.217L280.893,298.122z"/>
						<path style="fill:#4F2E0E;" d="M279.969,300.163l0.487-1.077l9.227,4.031l-0.539,1.194L279.969,300.163z"/>
						<path style="fill:#4F2E0E;" d="M279.047,302.204l0.486-1.078l9.127,4.252l-0.541,1.192L279.047,302.204z"/>
						<path style="fill:#4F2E0E;" d="M274.913,302.917l0.694-1.353l12.038,5.945l-0.795,1.555L274.913,302.917z"/>
						<path style="fill:#4F2E0E;" d="M276.923,306.349l0.542-1.051l8.904,4.701l-0.601,1.163L276.923,306.349z"/>
						<path style="fill:#4F2E0E;" d="M275.806,308.29l0.589-1.025l8.79,4.913l-0.652,1.135L275.806,308.29z"/>
						<path style="fill:#4F2E0E;" d="M274.689,310.233l0.59-1.025l8.669,5.121l-0.655,1.134L274.689,310.233z"/>
						<path style="fill:#4F2E0E;" d="M273.479,312.118l0.639-0.995l8.545,5.326l-0.706,1.103L273.479,312.118z"/>
						<path style="fill:#4F2E0E;" d="M269.331,312.352c0,0,0.221-0.31,0.42-0.634c0.205-0.32,0.409-0.641,0.409-0.641l11.229,7.359
							c0,0-0.236,0.367-0.472,0.734c-0.23,0.371-0.483,0.727-0.483,0.727L269.331,312.352z"/>
						<path style="fill:#4F2E0E;" d="M270.87,315.975l0.686-0.963l8.271,5.743l-0.759,1.067L270.87,315.975z"/>
						<path style="fill:#4F2E0E;" d="M269.568,317.798l0.689-0.961l8.132,5.939l-0.765,1.063L269.568,317.798z"/>
						<path style="fill:#4F2E0E;" d="M268.183,319.56l0.73-0.93l7.988,6.13l-0.809,1.029L268.183,319.56z"/>
						<path style="fill:#4F2E0E;" d="M266.796,321.319l0.733-0.928l7.84,6.318l-0.813,1.025L266.796,321.319z"/>
						<path style="fill:#4F2E0E;" d="M262.613,321.021l0.996-1.149l10.261,8.658l-1.143,1.32L262.613,321.021z"/>
						<path style="fill:#4F2E0E;" d="M263.738,324.833c0,0,0.206-0.212,0.395-0.44c0.193-0.224,0.387-0.447,0.387-0.447l7.519,6.698
							c0,0-0.214,0.247-0.429,0.494c-0.211,0.251-0.438,0.486-0.438,0.486L263.738,324.833z"/>
						<path style="fill:#4F2E0E;" d="M262.191,326.454l0.816-0.856l7.358,6.874l-0.903,0.947L262.191,326.454z"/>
						<path style="fill:#4F2E0E;" d="M260.638,328.069c0,0,0.215-0.203,0.415-0.421c0.204-0.214,0.407-0.428,0.407-0.428
							l7.193,7.046c0,0-0.227,0.237-0.452,0.473c-0.223,0.24-0.46,0.465-0.46,0.466L260.638,328.069z"/>
						<path style="fill:#4F2E0E;" d="M259.016,329.615l0.856-0.816l7.023,7.215l-0.947,0.903L259.016,329.615z"/>
						<path style="fill:#4F2E0E;" d="M254.927,328.847c0,0,0.296-0.239,0.566-0.508c0.274-0.263,0.55-0.525,0.55-0.525l9.145,9.829
							c0,0-0.315,0.301-0.632,0.601c-0.311,0.308-0.648,0.584-0.648,0.584L254.927,328.847z"/>
						<path style="fill:#4F2E0E;" d="M255.56,332.738l0.894-0.774l6.66,7.553l-0.989,0.857L255.56,332.738z"/>
						<path style="fill:#4F2E0E;" d="M253.856,334.193c0,0,0.238-0.176,0.458-0.375c0.223-0.194,0.446-0.388,0.446-0.388
							l6.479,7.709c0,0-0.248,0.214-0.495,0.428c-0.244,0.219-0.506,0.415-0.506,0.415L253.856,334.193z"/>
						<path style="fill:#4F2E0E;" d="M252.094,335.577l0.93-0.73l6.294,7.86l-1.029,0.809L252.094,335.577z"/>
						<path style="fill:#4F2E0E;" d="M250.324,336.95c0,0,0.246-0.166,0.474-0.354c0.232-0.183,0.464-0.366,0.464-0.366l6.105,8.008
							c0,0-0.257,0.202-0.515,0.404c-0.254,0.207-0.524,0.391-0.524,0.391L250.324,336.95z"/>
						<path style="fill:#4F2E0E;" d="M246.336,335.666l1.24-0.881l7.896,10.858l-1.423,1.012L246.336,335.666z"/>
						<path style="fill:#4F2E0E;" d="M246.515,339.631c0,0,0.253-0.154,0.494-0.325c0.241-0.171,0.482-0.343,0.482-0.343l5.701,8.3
							c0,0-0.267,0.189-0.534,0.378c-0.268,0.189-0.547,0.36-0.547,0.36L246.515,339.631z"/>
						<path style="fill:#4F2E0E;" d="M244.629,340.84l0.996-0.638l5.502,8.434l-1.102,0.707L244.629,340.84z"/>
						<path style="fill:#4F2E0E;" d="M242.733,342.032c0.001,0.001,0.262-0.139,0.508-0.302c0.249-0.16,0.498-0.319,0.498-0.319
							l5.299,8.562c0,0-0.276,0.176-0.551,0.352c-0.274,0.179-0.563,0.335-0.563,0.335L242.733,342.032z"/>
						<path style="fill:#4F2E0E;" d="M240.79,343.148l1.025-0.589l5.093,8.686l-1.135,0.653L240.79,343.148z"/>
						<path style="fill:#4F2E0E;" d="M237.004,341.42c0,0,0.342-0.166,0.674-0.352c0.329-0.19,0.658-0.38,0.658-0.38l6.526,11.733
							c0,0-0.379,0.217-0.758,0.434c-0.381,0.212-0.773,0.406-0.773,0.406L237.004,341.42z"/>
						<path style="fill:#4F2E0E;" d="M236.689,345.352l1.053-0.539l4.655,8.929l-1.166,0.597L236.689,345.352z"/>
						<path style="fill:#4F2E0E;" d="M234.686,346.353c0,0,0.271-0.116,0.536-0.249c0.263-0.135,0.526-0.27,0.526-0.27l4.44,9.038
							c0,0-0.292,0.149-0.583,0.298c-0.293,0.147-0.594,0.276-0.594,0.276L234.686,346.353z"/>
						<path style="fill:#4F2E0E;" d="M232.645,347.275l1.077-0.487l4.222,9.142l-1.193,0.54L232.645,347.275z"/>
						<path style="fill:#4F2E0E;" d="M230.597,348.181c0,0,0.279-0.099,0.546-0.226c0.269-0.122,0.539-0.244,0.539-0.244l4.001,9.24
							c0,0-0.298,0.135-0.597,0.269c-0.296,0.14-0.604,0.251-0.604,0.251L230.597,348.181z"/>
						<path style="fill:#4F2E0E;" d="M227.037,345.977l1.414-0.557l5.052,12.439l-1.625,0.641L227.037,345.977z"/>
						<path style="fill:#4F2E0E;" d="M226.256,349.868c0,0,0.283-0.088,0.558-0.195c0.275-0.108,0.549-0.217,0.549-0.217
							l3.535,9.428c0,0-0.305,0.12-0.609,0.239c-0.305,0.118-0.618,0.217-0.618,0.217L226.256,349.868z"/>
						<path style="fill:#4F2E0E;" d="M224.135,350.585l1.12-0.379l3.308,9.511l-1.241,0.42L224.135,350.585z"/>
						<path style="fill:#4F2E0E;" d="M222.009,351.288c0,0,0.287-0.072,0.565-0.173c0.28-0.095,0.56-0.19,0.56-0.19l3.078,9.587
							c0,0-0.311,0.105-0.621,0.209c-0.308,0.111-0.626,0.193-0.626,0.192L222.009,351.288z"/>
						<path style="fill:#4F2E0E;" d="M219.854,351.899l1.137-0.323l2.846,9.658l-1.26,0.358L219.854,351.899z"/>
						<path style="fill:#4F2E0E;" d="M216.599,349.311c0,0,0.374-0.072,0.737-0.185c0.365-0.104,0.73-0.208,0.73-0.208l3.499,12.961
							c0,0-0.42,0.119-0.841,0.238c-0.418,0.128-0.847,0.214-0.847,0.214L216.599,349.311z"/>
						<path style="fill:#4F2E0E;" d="M215.342,353.045l1.152-0.266l2.36,9.789l-1.276,0.294L215.342,353.045z"/>
						<path style="fill:#4F2E0E;" d="M213.159,353.54c0,0,0.29-0.053,0.578-0.124c0.288-0.067,0.576-0.133,0.576-0.133l2.124,9.843
							c0,0-0.319,0.073-0.638,0.147c-0.318,0.078-0.64,0.137-0.64,0.137L213.159,353.54z"/>
						<path style="fill:#4F2E0E;" d="M210.953,353.934l1.164-0.208l1.888,9.891l-1.289,0.23L210.953,353.934z"/>
						<path style="fill:#4F2E0E;" d="M208.749,354.328l1.164-0.208l1.65,9.933l-1.289,0.228L208.749,354.328z"/>
						<path style="fill:#4F2E0E;" d="M205.824,351.317l1.509-0.191l1.898,13.291l-1.732,0.221L205.824,351.317z"/>
						<path style="fill:#4F2E0E;" d="M204.128,354.917l1.173-0.15l1.155,10.003l-1.299,0.164L204.128,354.917z"/>
						<path style="fill:#4F2E0E;" d="M201.894,355.091l1.179-0.089l0.917,10.027l-1.305,0.1L201.894,355.091z"/>
						<path style="fill:#4F2E0E;" d="M199.66,355.262l1.179-0.09l0.679,10.046l-1.305,0.098L199.66,355.262z"/>
						<path style="fill:#4F2E0E;" d="M197.42,355.338l1.183-0.029l0.441,10.06l-1.308,0.034L197.42,355.338z"/>
						<path style="fill:#4F2E0E;" d="M194.876,352.047l1.521-0.04l0.289,13.423l-1.744,0.043L194.876,352.047z"/>
						<path style="fill:#4F2E0E;" d="M192.761,355.372l1.183,0.031l-0.05,10.069l-1.307-0.032L192.761,355.372z"/>
						<path style="fill:#4F2E0E;" d="M190.52,355.316l1.183,0.029l-0.286,10.065l-1.308-0.034L190.52,355.316z"/>
						<path style="fill:#4F2E0E;" d="M188.283,355.193l1.18,0.09l-0.523,10.056l-1.305-0.098L188.283,355.193z"/>
						<path style="fill:#4F2E0E;" d="M186.048,355.023l1.18,0.089l-0.761,10.041l-1.305-0.1L186.048,355.023z"/>
						<path style="fill:#4F2E0E;" d="M183.921,351.433c0,0,0.377,0.048,0.754,0.097c0.376,0.056,0.756,0.082,0.756,0.082
							l-1.316,13.361c0,0-0.436-0.032-0.868-0.094c-0.433-0.055-0.866-0.109-0.866-0.109L183.921,351.433z"/>
						<path style="fill:#4F2E0E;" d="M181.421,354.499l1.173,0.148l-1.256,9.991l-1.299-0.165L181.421,354.499z"/>
						<path style="fill:#4F2E0E;" d="M179.206,354.17c0,0,0.291,0.052,0.582,0.105c0.29,0.058,0.584,0.091,0.584,0.091l-1.494,9.958
							c0,0-0.325-0.038-0.646-0.101c-0.322-0.058-0.645-0.115-0.645-0.115L179.206,354.17z"/>
						<path style="fill:#4F2E0E;" d="M177.001,353.776l1.164,0.208l-1.732,9.919l-1.289-0.23L177.001,353.776z"/>
						<path style="fill:#4F2E0E;" d="M174.803,353.348c0,0,0.288,0.066,0.576,0.133c0.289,0.064,0.581,0.11,0.581,0.11l-1.969,9.875
							c0,0-0.324-0.052-0.644-0.122c-0.319-0.073-0.638-0.147-0.638-0.147L174.803,353.348z"/>
						<path style="fill:#4F2E0E;" d="M173.129,349.517l1.48,0.341l-2.926,13.103l-1.702-0.393L173.129,349.517z"/>
						<path style="fill:#4F2E0E;" d="M170.274,352.266c0,0,0.285,0.081,0.569,0.162c0.285,0.078,0.574,0.139,0.574,0.139
							l-2.46,9.764c0,0-0.32-0.068-0.636-0.154c-0.315-0.089-0.631-0.178-0.631-0.178L170.274,352.266z"/>
						<path style="fill:#4F2E0E;" d="M168.12,351.654l1.137,0.323l-2.694,9.703l-1.26-0.358L168.12,351.654z"/>
						<path style="fill:#4F2E0E;" d="M165.974,351.016c0,0,0.28,0.094,0.56,0.188c0.285,0.081,0.569,0.161,0.569,0.161L164.176,361
							c0,0-0.314-0.09-0.629-0.18c-0.311-0.104-0.622-0.208-0.622-0.208L165.974,351.016z"/>
						<path style="fill:#4F2E0E;" d="M163.852,350.298l1.12,0.379l-3.157,9.561l-1.241-0.42L163.852,350.298z"/>
						<path style="fill:#4F2E0E;" d="M162.651,346.313c0,0,0.354,0.139,0.708,0.277c0.36,0.121,0.72,0.242,0.72,0.242l-4.501,12.649
							c0,0-0.414-0.141-0.827-0.281c-0.407-0.158-0.814-0.316-0.814-0.316L162.651,346.313z"/>
						<path style="fill:#4F2E0E;" d="M159.49,348.673l1.1,0.434l-3.631,9.392l-1.219-0.48L159.49,348.673z"/>
						<path style="fill:#4F2E0E;" d="M157.415,347.829c0,0,0.271,0.12,0.54,0.24c0.275,0.108,0.55,0.216,0.55,0.216l-3.856,9.302
							c0,0-0.305-0.121-0.609-0.241c-0.299-0.132-0.599-0.265-0.599-0.265L157.415,347.829z"/>
						<path style="fill:#4F2E0E;" d="M155.376,346.906l1.077,0.487l-4.078,9.207l-1.193-0.54L155.376,346.906z"/>
						<path style="fill:#4F2E0E;" d="M153.343,345.965c0,0,0.259,0.142,0.529,0.262c0.27,0.122,0.539,0.243,0.539,0.243
							l-4.298,9.106c0,0-0.298-0.135-0.597-0.271c-0.299-0.134-0.587-0.29-0.587-0.29L153.343,345.965z"/>
						<path style="fill:#4F2E0E;" d="M152.647,341.837l1.352,0.693l-6.005,12.007l-1.554-0.796L152.647,341.837z"/>
						<path style="fill:#4F2E0E;" d="M149.21,343.818c0,0,0.257,0.147,0.514,0.293c0.263,0.135,0.526,0.269,0.526,0.269
							l-4.746,8.881c0,0-0.291-0.149-0.582-0.299c-0.285-0.162-0.569-0.323-0.569-0.323L149.21,343.818z"/>
						<path style="fill:#4F2E0E;" d="M147.269,342.702l1.025,0.589l-4.956,8.765l-1.136-0.652L147.269,342.702z"/>
						<path style="fill:#4F2E0E;" d="M145.338,341.565c0,0,0.25,0.157,0.501,0.315c0.256,0.147,0.513,0.294,0.513,0.294
							l-5.165,8.643c0,0-0.284-0.164-0.567-0.327c-0.277-0.174-0.554-0.348-0.554-0.348L145.338,341.565z"/>
						<path style="fill:#4F2E0E;" d="M143.453,340.355l0.996,0.638l-5.37,8.518l-1.102-0.706L143.453,340.355z"/>
						<path style="fill:#4F2E0E;" d="M143.246,336.197c0,0,0.311,0.22,0.621,0.44c0.32,0.205,0.641,0.409,0.641,0.409l-7.415,11.192
							c0,0-0.367-0.236-0.734-0.472c-0.357-0.251-0.714-0.503-0.714-0.503L143.246,336.197z"/>
						<path style="fill:#4F2E0E;" d="M139.608,337.728l0.964,0.685l-5.785,8.242l-1.067-0.759L139.608,337.728z"/>
						<path style="fill:#4F2E0E;" d="M137.799,336.407c0,0,0.232,0.183,0.465,0.365c0.241,0.171,0.481,0.343,0.481,0.343
							l-5.979,8.102c0,0-0.266-0.19-0.533-0.38c-0.258-0.202-0.516-0.404-0.516-0.404L137.799,336.407z"/>
						<path style="fill:#4F2E0E;" d="M136.038,335.022l0.93,0.73l-6.17,7.957l-1.029-0.809L136.038,335.022z"/>
						<path style="fill:#4F2E0E;" d="M134.292,333.618c0,0,0.224,0.193,0.447,0.386c0.233,0.183,0.466,0.365,0.466,0.365
							l-6.358,7.809c0,0-0.257-0.202-0.514-0.405c-0.248-0.213-0.496-0.427-0.496-0.427L134.292,333.618z"/>
						<path style="fill:#4F2E0E;" d="M134.602,329.446l1.15,0.996l-8.71,10.217l-1.319-1.143L134.602,329.446z"/>
						<path style="fill:#4F2E0E;" d="M130.794,330.542c0,0,0.214,0.204,0.428,0.408c0.222,0.195,0.443,0.391,0.443,0.391
							l-6.735,7.485c0,0-0.245-0.217-0.49-0.434c-0.237-0.226-0.475-0.451-0.475-0.451L130.794,330.542z"/>
						<path style="fill:#4F2E0E;" d="M129.172,328.996l0.856,0.816l-6.911,7.324l-0.947-0.903L129.172,328.996z"/>
						<path style="fill:#4F2E0E;" d="M127.574,327.427c0,0,0.204,0.214,0.407,0.428c0.213,0.206,0.425,0.411,0.425,0.411
							l-7.083,7.158c0,0-0.235-0.228-0.47-0.456c-0.226-0.237-0.452-0.473-0.452-0.473L127.574,327.427z"/>
						<path style="fill:#4F2E0E;" d="M126.027,325.805l0.816,0.856l-7.25,6.987l-0.903-0.947L126.027,325.805z"/>
						<path style="fill:#4F2E0E;" d="M126.824,321.713c0,0,0.248,0.288,0.497,0.576c0.251,0.285,0.52,0.555,0.52,0.555l-9.875,9.096
							c0,0-0.306-0.311-0.595-0.638c-0.286-0.33-0.572-0.659-0.572-0.659L126.824,321.713z"/>
						<path style="fill:#4F2E0E;" d="M122.921,322.334l0.774,0.894l-7.586,6.621l-0.857-0.989L122.921,322.334z"/>
						<path style="fill:#4F2E0E;" d="M121.484,320.616c0,0,0.183,0.232,0.365,0.465c0.178,0.237,0.379,0.454,0.379,0.454
							l-7.741,6.439c0,0.001-0.222-0.241-0.419-0.502c-0.202-0.257-0.405-0.514-0.405-0.514L121.484,320.616z"/>
						<path style="fill:#4F2E0E;" d="M120.1,318.854l0.73,0.93l-7.892,6.254l-0.809-1.029L120.1,318.854z"/>
						<path style="fill:#4F2E0E;" d="M118.746,317.07c0,0,0.171,0.241,0.342,0.482c0.168,0.244,0.358,0.471,0.358,0.471
							l-8.038,6.065c0,0-0.21-0.252-0.396-0.521c-0.19-0.267-0.38-0.533-0.38-0.533L118.746,317.07z"/>
						<path style="fill:#4F2E0E;" d="M120.039,313.097l0.881,1.239l-10.898,7.841l-1.011-1.423L120.039,313.097z"/>
						<path style="fill:#4F2E0E;" d="M116.083,313.249c0,0,0.159,0.249,0.319,0.498c0.154,0.252,0.329,0.491,0.329,0.491
							l-8.328,5.66c0,0-0.192-0.265-0.365-0.543c-0.177-0.275-0.354-0.551-0.354-0.551L116.083,313.249z"/>
						<path style="fill:#4F2E0E;" d="M114.873,311.363l0.639,0.996l-8.461,5.459l-0.706-1.102L114.873,311.363z"/>
						<path style="fill:#4F2E0E;" d="M113.701,309.454c0,0,0.147,0.256,0.295,0.513c0.142,0.26,0.307,0.505,0.307,0.505
							l-8.589,5.256c0,0-0.181-0.272-0.34-0.559c-0.163-0.284-0.327-0.567-0.327-0.567L113.701,309.454z"/>
						<path style="fill:#4F2E0E;" d="M112.585,307.513l0.59,1.025l-8.712,5.049l-0.652-1.135L112.585,307.513z"/>
						<path style="fill:#4F2E0E;" d="M114.341,303.73c0,0,0.173,0.338,0.346,0.677c0.165,0.343,0.365,0.667,0.365,0.666
							l-11.766,6.467c0,0-0.228-0.373-0.419-0.765c-0.2-0.389-0.399-0.777-0.399-0.777L114.341,303.73z"/>
						<path style="fill:#4F2E0E;" d="M110.401,303.4l0.54,1.052l-8.952,4.61l-0.597-1.166L110.401,303.4z"/>
						<path style="fill:#4F2E0E;" d="M109.421,301.387c0,0,0.122,0.269,0.243,0.539c0.117,0.272,0.254,0.534,0.254,0.534
							l-9.06,4.394c0,0-0.151-0.29-0.282-0.591c-0.135-0.298-0.27-0.596-0.27-0.596L109.421,301.387z"/>
						<path style="fill:#4F2E0E;" d="M108.499,299.346l0.487,1.077l-9.162,4.176l-0.539-1.193L108.499,299.346z"/>
						<path style="fill:#4F2E0E;" d="M107.615,297.289c0,0,0.108,0.275,0.217,0.55c0.102,0.278,0.232,0.544,0.232,0.544
							l-9.261,3.955c0,0-0.142-0.295-0.256-0.603c-0.121-0.304-0.241-0.609-0.241-0.609L107.615,297.289z"/>
						<path style="fill:#4F2E0E;" d="M109.825,293.745l0.558,1.414l-12.464,4.989l-0.64-1.625L109.825,293.745z"/>
						<path style="fill:#4F2E0E;" d="M105.95,292.94c0,0,0.094,0.28,0.189,0.56c0.089,0.282,0.201,0.556,0.201,0.556l-9.446,3.487
							c0,0-0.123-0.304-0.223-0.616c-0.105-0.31-0.211-0.62-0.211-0.62L105.95,292.94z"/>
						<path style="fill:#4F2E0E;" d="M105.232,290.819l0.379,1.12l-9.527,3.259l-0.42-1.241L105.232,290.819z"/>
						<path style="fill:#4F2E0E;" d="M104.553,288.686c0,0,0.081,0.284,0.161,0.568c0.074,0.287,0.179,0.563,0.179,0.563
							l-9.603,3.029c-0.001,0-0.115-0.307-0.198-0.624c-0.09-0.315-0.18-0.63-0.18-0.63L104.553,288.686z"/>
						<path style="fill:#4F2E0E;" d="M103.941,286.531l0.323,1.137l-9.673,2.797l-0.358-1.26L103.941,286.531z"/>
						<path style="fill:#4F2E0E;" d="M106.556,283.287c0,0,0.085,0.37,0.169,0.74c0.089,0.37,0.201,0.733,0.201,0.733l-12.979,3.433
							c0,0-0.127-0.418-0.229-0.843c-0.099-0.425-0.197-0.85-0.197-0.85L106.556,283.287z"/>
						<path style="fill:#4F2E0E;" d="M102.818,282.014l0.266,1.151l-9.801,2.31l-0.294-1.276L102.818,282.014z"/>
						<path style="fill:#4F2E0E;" d="M102.346,279.824c0,0,0.052,0.291,0.104,0.582c0.064,0.289,0.13,0.577,0.13,0.577l-9.854,2.074
							c0,0-0.071-0.32-0.143-0.639c-0.059-0.322-0.116-0.645-0.116-0.645L102.346,279.824z"/>
						<path style="fill:#4F2E0E;" d="M101.953,277.62l0.208,1.164l-9.9,1.837l-0.23-1.289L101.953,277.62z"/>
						<path style="fill:#4F2E0E;" d="M101.581,275.411c0,0,0.029,0.294,0.082,0.585c0.052,0.291,0.104,0.582,0.104,0.582l-9.941,1.6
							c0,0-0.057-0.322-0.114-0.645c-0.057-0.323-0.091-0.648-0.091-0.648L101.581,275.411z"/>
						<path style="fill:#4F2E0E;" d="M104.595,272.503l0.191,1.508l-13.3,1.831l-0.22-1.732L104.595,272.503z"/>
						<path style="fill:#4F2E0E;" d="M101.011,270.788c0,0,0.012,0.296,0.057,0.589c0.037,0.293,0.075,0.586,0.075,0.586
							l-10.008,1.104c0,0-0.041-0.325-0.082-0.649c-0.048-0.324-0.063-0.651-0.063-0.651L101.011,270.788z"/>
						<path style="fill:#4F2E0E;" d="M100.842,268.554l0.09,1.179L90.9,270.6l-0.1-1.305L100.842,268.554z"/>
						<path style="fill:#4F2E0E;" d="M100.675,266.319l0.087,1.18l-10.05,0.628l-0.094-1.305L100.675,266.319z"/>
						<path style="fill:#4F2E0E;" d="M100.619,264.079l0.03,1.183l-10.062,0.391l-0.034-1.308L100.619,264.079z"/>
						<path style="fill:#4F2E0E;" d="M103.911,261.552l0.04,1.522l-13.424,0.222l-0.042-1.743H103.911z"/>
					</g>
					<g>
						<path style="fill:#4F2E0E;" d="M100.585,260.369l-0.031,1.183H90.485l0.031-1.308L100.585,260.369z"/>
						<path style="fill:#4F2E0E;" d="M100.642,258.128l-0.03,1.183l-10.066-0.236l0.033-1.308L100.642,258.128z"/>
						<path style="fill:#4F2E0E;" d="M100.74,255.89c0,0-0.023,0.295-0.045,0.59c-0.029,0.294-0.027,0.591-0.027,0.591
							l-10.058-0.473c0,0-0.001-0.327,0.03-0.653c0.024-0.327,0.049-0.653,0.049-0.653L100.74,255.89z"/>
						<path style="fill:#4F2E0E;" d="M100.911,253.655l-0.09,1.179l-10.044-0.71l0.099-1.305L100.911,253.655z"/>
						<path style="fill:#4F2E0E;" d="M104.479,251.508c0,0-0.049,0.377-0.097,0.754c-0.029,0.379-0.058,0.759-0.058,0.759
							l-13.367-1.25c0,0,0.034-0.435,0.069-0.87c0.054-0.433,0.109-0.866,0.109-0.866L104.479,251.508z"/>
						<path style="fill:#4F2E0E;" d="M101.412,249.025l-0.149,1.173l-9.997-1.206l0.165-1.299L101.412,249.025z"/>
						<path style="fill:#4F2E0E;" d="M101.716,246.807c0,0-0.06,0.29-0.098,0.583c-0.037,0.294-0.074,0.586-0.074,0.586
							l-9.965-1.444c0,0,0.042-0.324,0.083-0.649c0.043-0.325,0.107-0.646,0.107-0.646L101.716,246.807z"/>
						<path style="fill:#4F2E0E;" d="M102.111,244.602l-0.208,1.164l-9.928-1.682l0.229-1.289L102.111,244.602z"/>
						<path style="fill:#4F2E0E;" d="M102.515,242.399c0,0-0.069,0.287-0.115,0.58c-0.052,0.29-0.104,0.581-0.104,0.581
							l-9.885-1.919c0,0,0.058-0.322,0.116-0.645c0.052-0.323,0.129-0.642,0.129-0.642L102.515,242.399z"/>
						<path style="fill:#4F2E0E;" d="M106.351,240.708l-0.342,1.481l-13.118-2.859l0.393-1.702L106.351,240.708z"/>
						<path style="fill:#4F2E0E;" d="M103.574,237.864c0,0-0.084,0.284-0.144,0.573c-0.066,0.288-0.133,0.576-0.133,0.576
							l-9.776-2.41c0,0,0.074-0.319,0.147-0.638c0.069-0.32,0.16-0.635,0.16-0.635L103.574,237.864z"/>
						<path style="fill:#4F2E0E;" d="M104.187,235.71l-0.323,1.137l-9.716-2.644l0.357-1.26L104.187,235.71z"/>
						<path style="fill:#4F2E0E;" d="M104.802,233.557l-0.327,1.136l-9.649-2.877l0.364-1.258L104.802,233.557z"/>
						<path style="fill:#4F2E0E;" d="M105.521,231.436l-0.379,1.12l-9.577-3.109l0.419-1.241L105.521,231.436z"/>
						<path style="fill:#4F2E0E;" d="M109.489,230.209c0,0.001-0.139,0.354-0.254,0.716c-0.121,0.36-0.243,0.72-0.243,0.72
							l-12.671-4.436c0,0,0.14-0.413,0.28-0.827c0.135-0.416,0.294-0.822,0.293-0.822L109.489,230.209z"/>
						<path style="fill:#4F2E0E;" d="M107.123,227.065l-0.434,1.1l-9.41-3.584l0.48-1.219L107.123,227.065z"/>
						<path style="fill:#4F2E0E;" d="M107.946,224.982l-0.435,1.099l-9.321-3.809l0.484-1.217L107.946,224.982z"/>
						<path style="fill:#4F2E0E;" d="M108.869,222.941l-0.487,1.077l-9.227-4.031l0.539-1.193L108.869,222.941z"/>
						<path style="fill:#4F2E0E;" d="M109.791,220.9l-0.486,1.077l-9.128-4.252l0.541-1.192L109.791,220.9z"/>
						<path style="fill:#4F2E0E;" d="M113.925,220.188l-0.693,1.353l-12.038-5.945l0.796-1.555L113.925,220.188z"/>
						<path style="fill:#4F2E0E;" d="M111.915,216.755l-0.542,1.051l-8.904-4.701l0.602-1.163L111.915,216.755z"/>
						<path style="fill:#4F2E0E;" d="M113.033,214.814l-0.59,1.025l-8.79-4.913l0.652-1.135L113.033,214.814z"/>
						<path style="fill:#4F2E0E;" d="M114.149,212.872l-0.589,1.025l-8.67-5.121l0.655-1.134L114.149,212.872z"/>
						<path style="fill:#4F2E0E;" d="M115.359,210.986l-0.639,0.995l-8.545-5.327l0.706-1.102L115.359,210.986z"/>
						<path style="fill:#4F2E0E;" d="M119.507,210.752c0,0-0.221,0.31-0.42,0.634c-0.205,0.32-0.409,0.64-0.409,0.64l-11.229-7.358
							c0,0,0.236-0.367,0.472-0.734c0.23-0.371,0.483-0.727,0.483-0.727L119.507,210.752z"/>
						<path style="fill:#4F2E0E;" d="M117.968,207.129l-0.686,0.964l-8.271-5.744l0.759-1.067L117.968,207.129z"/>
						<path style="fill:#4F2E0E;" d="M119.27,205.306l-0.689,0.961l-8.132-5.939l0.765-1.063L119.27,205.306z"/>
						<path style="fill:#4F2E0E;" d="M120.655,203.544l-0.73,0.93l-7.988-6.13l0.809-1.029L120.655,203.544z"/>
						<path style="fill:#4F2E0E;" d="M122.041,201.785l-0.733,0.928l-7.84-6.318l0.813-1.026L122.041,201.785z"/>
						<path style="fill:#4F2E0E;" d="M126.225,202.083l-0.996,1.149l-10.261-8.658l1.143-1.319L126.225,202.083z"/>
						<path style="fill:#4F2E0E;" d="M125.1,198.271c0.001,0-0.206,0.212-0.395,0.439c-0.194,0.224-0.387,0.447-0.387,0.447
							l-7.519-6.697c0,0,0.214-0.247,0.429-0.494c0.211-0.25,0.438-0.486,0.438-0.486L125.1,198.271z"/>
						<path style="fill:#4F2E0E;" d="M126.647,196.65l-0.816,0.856l-7.358-6.874l0.903-0.948L126.647,196.65z"/>
						<path style="fill:#4F2E0E;" d="M128.2,195.035c0,0-0.215,0.203-0.415,0.421c-0.204,0.214-0.408,0.428-0.408,0.428
							l-7.193-7.046c0,0,0.226-0.236,0.452-0.473c0.223-0.24,0.46-0.465,0.46-0.465L128.2,195.035z"/>
						<path style="fill:#4F2E0E;" d="M129.822,193.489l-0.856,0.816l-7.024-7.215l0.947-0.903L129.822,193.489z"/>
						<path style="fill:#4F2E0E;" d="M133.911,194.257c0,0-0.296,0.239-0.565,0.508c-0.274,0.263-0.55,0.526-0.55,0.526
							l-9.145-9.829c0,0,0.316-0.301,0.632-0.602c0.31-0.307,0.648-0.584,0.648-0.584L133.911,194.257z"/>
						<path style="fill:#4F2E0E;" d="M133.278,190.366l-0.894,0.774l-6.66-7.553l0.989-0.857L133.278,190.366z"/>
						<path style="fill:#4F2E0E;" d="M134.981,188.911c0,0-0.238,0.176-0.458,0.374c-0.223,0.194-0.446,0.388-0.446,0.388
							l-6.479-7.709c0,0,0.248-0.214,0.495-0.428c0.243-0.219,0.506-0.415,0.506-0.415L134.981,188.911z"/>
						<path style="fill:#4F2E0E;" d="M136.744,187.527l-0.93,0.73l-6.294-7.86l1.029-0.809L136.744,187.527z"/>
						<path style="fill:#4F2E0E;" d="M138.514,186.154c0,0-0.245,0.165-0.474,0.354c-0.232,0.183-0.464,0.366-0.464,0.366
							l-6.105-8.008c0,0,0.258-0.202,0.515-0.404c0.254-0.207,0.524-0.391,0.524-0.391L138.514,186.154z"/>
						<path style="fill:#4F2E0E;" d="M142.501,187.438l-1.239,0.881l-7.896-10.858l1.422-1.012L142.501,187.438z"/>
						<path style="fill:#4F2E0E;" d="M142.322,183.473c0,0-0.253,0.154-0.494,0.325c-0.241,0.171-0.482,0.343-0.482,0.343
							l-5.701-8.3c0,0,0.267-0.189,0.534-0.378c0.268-0.188,0.546-0.36,0.546-0.36L142.322,183.473z"/>
						<path style="fill:#4F2E0E;" d="M144.208,182.264l-0.995,0.638l-5.502-8.433l1.102-0.707L144.208,182.264z"/>
						<path style="fill:#4F2E0E;" d="M146.104,181.072c0-0.001-0.261,0.139-0.508,0.302c-0.249,0.16-0.497,0.319-0.497,0.319
							l-5.3-8.562c0,0,0.276-0.176,0.552-0.352c0.274-0.179,0.563-0.335,0.563-0.335L146.104,181.072z"/>
						<path style="fill:#4F2E0E;" d="M148.047,179.956l-1.025,0.589l-5.094-8.687l1.135-0.653L148.047,179.956z"/>
						<path style="fill:#4F2E0E;" d="M151.833,181.684c0,0-0.342,0.166-0.673,0.352c-0.329,0.19-0.659,0.38-0.659,0.38
							l-6.526-11.733c0,0,0.379-0.217,0.757-0.434c0.381-0.212,0.773-0.406,0.773-0.406L151.833,181.684z"/>
						<path style="fill:#4F2E0E;" d="M152.148,177.752l-1.052,0.539l-4.655-8.929l1.165-0.597L152.148,177.752z"/>
						<path style="fill:#4F2E0E;" d="M154.152,176.751c0,0-0.272,0.116-0.536,0.249c-0.263,0.135-0.526,0.27-0.526,0.27l-4.44-9.038
							c0,0,0.292-0.149,0.583-0.298c0.293-0.146,0.594-0.276,0.594-0.276L154.152,176.751z"/>
						<path style="fill:#4F2E0E;" d="M156.193,175.829l-1.077,0.487l-4.222-9.142l1.193-0.54L156.193,175.829z"/>
						<path style="fill:#4F2E0E;" d="M158.241,174.923c0,0-0.279,0.099-0.546,0.226c-0.269,0.122-0.538,0.244-0.538,0.244
							l-4.002-9.24c0,0,0.299-0.135,0.597-0.269c0.296-0.14,0.605-0.251,0.605-0.251L158.241,174.923z"/>
						<path style="fill:#4F2E0E;" d="M161.801,177.127l-1.414,0.557l-5.053-12.438l1.625-0.641L161.801,177.127z"/>
						<path style="fill:#4F2E0E;" d="M162.581,173.236c0-0.001-0.282,0.088-0.558,0.195c-0.274,0.109-0.55,0.217-0.55,0.217
							l-3.535-9.428c0,0,0.305-0.12,0.61-0.239c0.305-0.118,0.618-0.217,0.618-0.217L162.581,173.236z"/>
						<path style="fill:#4F2E0E;" d="M164.703,172.519l-1.12,0.378l-3.308-9.51l1.241-0.42L164.703,172.519z"/>
						<path style="fill:#4F2E0E;" d="M166.829,171.816c0,0-0.287,0.072-0.564,0.173c-0.28,0.095-0.56,0.19-0.56,0.19l-3.078-9.587
							c0,0,0.311-0.104,0.621-0.209c0.308-0.111,0.626-0.192,0.626-0.192L166.829,171.816z"/>
						<path style="fill:#4F2E0E;" d="M168.983,171.205l-1.137,0.323L165,161.869l1.26-0.358L168.983,171.205z"/>
						<path style="fill:#4F2E0E;" d="M172.238,173.792c0,0-0.374,0.072-0.737,0.186c-0.365,0.104-0.73,0.209-0.73,0.209
							l-3.499-12.961c0,0,0.42-0.119,0.84-0.238c0.418-0.128,0.847-0.214,0.847-0.213L172.238,173.792z"/>
						<path style="fill:#4F2E0E;" d="M173.496,170.059l-1.152,0.266l-2.36-9.789l1.276-0.295L173.496,170.059z"/>
						<path style="fill:#4F2E0E;" d="M175.679,169.563c0,0-0.291,0.052-0.578,0.124c-0.288,0.066-0.576,0.133-0.576,0.133
							l-2.124-9.843c0,0,0.319-0.073,0.638-0.146c0.318-0.078,0.641-0.137,0.641-0.137L175.679,169.563z"/>
						<path style="fill:#4F2E0E;" d="M177.884,169.17l-1.164,0.208l-1.887-9.891l1.29-0.23L177.884,169.17z"/>
						<path style="fill:#4F2E0E;" d="M180.089,168.776l-1.164,0.208l-1.65-9.933l1.289-0.229L180.089,168.776z"/>
						<path style="fill:#4F2E0E;" d="M183.014,171.787l-1.508,0.191l-1.898-13.29l1.732-0.221L183.014,171.787z"/>
						<path style="fill:#4F2E0E;" d="M184.71,168.187l-1.173,0.15l-1.155-10.003l1.299-0.163L184.71,168.187z"/>
						<path style="fill:#4F2E0E;" d="M186.944,168.013l-1.18,0.089l-0.917-10.027l1.305-0.1L186.944,168.013z"/>
						<path style="fill:#4F2E0E;" d="M189.178,167.842l-1.18,0.09l-0.679-10.046l1.305-0.098L189.178,167.842z"/>
						<path style="fill:#4F2E0E;" d="M191.417,167.766l-1.183,0.029l-0.441-10.06l1.308-0.034L191.417,167.766z"/>
						<path style="fill:#4F2E0E;" d="M193.961,171.057l-1.522,0.04l-0.288-13.423l1.743-0.042L193.961,171.057z"/>
						<path style="fill:#4F2E0E;" d="M196.077,167.731l-1.183-0.03l0.05-10.069l1.308,0.032L196.077,167.731z"/>
						<path style="fill:#4F2E0E;" d="M198.318,167.788l-1.183-0.029l0.287-10.066l1.308,0.034L198.318,167.788z"/>
						<path style="fill:#4F2E0E;" d="M200.555,167.911l-1.179-0.09l0.523-10.056l1.305,0.098L200.555,167.911z"/>
						<path style="fill:#4F2E0E;" d="M202.789,168.081l-1.179-0.089l0.761-10.041l1.305,0.1L202.789,168.081z"/>
						<path style="fill:#4F2E0E;" d="M204.917,171.671c0,0-0.377-0.048-0.754-0.097c-0.376-0.056-0.756-0.083-0.756-0.083
							l1.316-13.361c0,0,0.435,0.032,0.867,0.094c0.433,0.055,0.866,0.109,0.866,0.109L204.917,171.671z"/>
						<path style="fill:#4F2E0E;" d="M207.417,168.606l-1.173-0.149l1.256-9.991l1.299,0.166L207.417,168.606z"/>
						<path style="fill:#4F2E0E;" d="M209.631,168.934c0,0-0.291-0.052-0.581-0.104c-0.29-0.058-0.584-0.091-0.584-0.092
							l1.494-9.958c0,0,0.325,0.038,0.647,0.101c0.322,0.057,0.645,0.114,0.645,0.114L209.631,168.934z"/>
						<path style="fill:#4F2E0E;" d="M211.836,169.328l-1.164-0.207l1.732-9.92l1.289,0.23L211.836,169.328z"/>
						<path style="fill:#4F2E0E;" d="M214.035,169.757c0,0-0.288-0.067-0.576-0.133c-0.288-0.064-0.581-0.11-0.581-0.11l1.969-9.875
							c0,0,0.323,0.052,0.643,0.123c0.319,0.073,0.638,0.146,0.638,0.146L214.035,169.757z"/>
						<path style="fill:#4F2E0E;" d="M215.708,173.588l-1.48-0.342l2.925-13.103l1.702,0.393L215.708,173.588z"/>
						<path style="fill:#4F2E0E;" d="M218.563,170.838c0,0-0.284-0.081-0.568-0.162c-0.285-0.078-0.574-0.139-0.574-0.139
							l2.46-9.764c0,0,0.32,0.068,0.636,0.154c0.315,0.089,0.63,0.178,0.63,0.178L218.563,170.838z"/>
						<path style="fill:#4F2E0E;" d="M220.717,171.45l-1.137-0.323l2.693-9.702l1.26,0.358L220.717,171.45z"/>
						<path style="fill:#4F2E0E;" d="M222.864,172.088c0,0-0.28-0.094-0.561-0.188c-0.284-0.081-0.568-0.161-0.568-0.161
							l2.926-9.635c0,0,0.315,0.09,0.629,0.18c0.311,0.104,0.621,0.208,0.621,0.208L222.864,172.088z"/>
						<path style="fill:#4F2E0E;" d="M224.985,172.807l-1.12-0.379l3.157-9.562l1.241,0.42L224.985,172.807z"/>
						<path style="fill:#4F2E0E;" d="M226.186,176.792c0,0-0.354-0.138-0.707-0.276c-0.36-0.122-0.72-0.243-0.72-0.243l4.5-12.649
							c0,0,0.414,0.141,0.827,0.281c0.407,0.158,0.814,0.316,0.814,0.316L226.186,176.792z"/>
						<path style="fill:#4F2E0E;" d="M229.347,174.431l-1.1-0.434l3.631-9.392l1.219,0.48L229.347,174.431z"/>
						<path style="fill:#4F2E0E;" d="M231.421,175.275c0,0-0.27-0.12-0.54-0.24c-0.274-0.108-0.55-0.216-0.55-0.216l3.856-9.302
							c0,0,0.304,0.121,0.609,0.241c0.299,0.133,0.599,0.266,0.599,0.266L231.421,175.275z"/>
						<path style="fill:#4F2E0E;" d="M233.462,176.199l-1.077-0.487l4.078-9.207l1.194,0.54L233.462,176.199z"/>
						<path style="fill:#4F2E0E;" d="M235.495,177.14c0,0-0.26-0.142-0.53-0.263c-0.269-0.122-0.538-0.243-0.538-0.243l4.298-9.106
							c0,0,0.298,0.135,0.596,0.27c0.298,0.134,0.586,0.291,0.586,0.291L235.495,177.14z"/>
						<path style="fill:#4F2E0E;" d="M236.19,181.268l-1.353-0.693l6.006-12.007l1.555,0.796L236.19,181.268z"/>
						<path style="fill:#4F2E0E;" d="M239.627,179.286c0,0-0.256-0.146-0.513-0.293c-0.264-0.135-0.526-0.269-0.526-0.269
							l4.746-8.881c0,0,0.292,0.149,0.583,0.299c0.284,0.162,0.569,0.323,0.569,0.323L239.627,179.286z"/>
						<path style="fill:#4F2E0E;" d="M241.569,180.403l-1.025-0.589l4.957-8.765l1.135,0.652L241.569,180.403z"/>
						<path style="fill:#4F2E0E;" d="M243.499,181.539c0,0-0.25-0.157-0.5-0.315c-0.256-0.147-0.513-0.295-0.513-0.295l5.165-8.643
							c0,0,0.283,0.164,0.567,0.327c0.277,0.174,0.554,0.348,0.554,0.348L243.499,181.539z"/>
						<path style="fill:#4F2E0E;" d="M245.385,182.749l-0.996-0.638l5.37-8.518l1.102,0.706L245.385,182.749z"/>
						<path style="fill:#4F2E0E;" d="M245.591,186.908c0,0-0.31-0.22-0.62-0.439c-0.32-0.205-0.641-0.409-0.641-0.409l7.415-11.192
							c0,0,0.367,0.236,0.734,0.472c0.356,0.251,0.713,0.502,0.713,0.502L245.591,186.908z"/>
						<path style="fill:#4F2E0E;" d="M249.229,185.377l-0.964-0.686l5.785-8.242l1.067,0.759L249.229,185.377z"/>
						<path style="fill:#4F2E0E;" d="M251.039,186.697c0,0-0.232-0.183-0.465-0.366c-0.241-0.171-0.482-0.342-0.482-0.342
							l5.98-8.102c0,0,0.267,0.19,0.533,0.38c0.257,0.202,0.515,0.404,0.515,0.404L251.039,186.697z"/>
						<path style="fill:#4F2E0E;" d="M252.8,188.082l-0.93-0.73l6.17-7.958l1.029,0.809L252.8,188.082z"/>
						<path style="fill:#4F2E0E;" d="M254.545,189.487c0,0-0.224-0.193-0.448-0.386c-0.232-0.183-0.465-0.365-0.465-0.365
							l6.357-7.809c0,0,0.257,0.203,0.514,0.405c0.249,0.213,0.497,0.427,0.497,0.427L254.545,189.487z"/>
						<path style="fill:#4F2E0E;" d="M254.235,193.659l-1.149-0.996l8.709-10.217l1.319,1.143L254.235,193.659z"/>
						<path style="fill:#4F2E0E;" d="M258.043,192.562c0,0-0.214-0.204-0.428-0.408c-0.222-0.195-0.443-0.391-0.443-0.391
							l6.735-7.485c0,0,0.245,0.217,0.49,0.434c0.237,0.226,0.474,0.451,0.474,0.451L258.043,192.562z"/>
						<path style="fill:#4F2E0E;" d="M259.665,194.108l-0.856-0.816l6.911-7.323l0.947,0.903L259.665,194.108z"/>
						<path style="fill:#4F2E0E;" d="M261.264,195.678c0,0-0.204-0.214-0.408-0.428c-0.212-0.206-0.425-0.411-0.425-0.411
							l7.082-7.157c0,0,0.235,0.227,0.47,0.455c0.226,0.237,0.452,0.473,0.452,0.473L261.264,195.678z"/>
						<path style="fill:#4F2E0E;" d="M262.81,197.3l-0.816-0.856l7.25-6.987l0.903,0.947L262.81,197.3z"/>
						<path style="fill:#4F2E0E;" d="M262.014,201.391c0,0-0.249-0.288-0.497-0.576c-0.251-0.285-0.52-0.555-0.52-0.555l9.875-9.096
							c0,0,0.307,0.311,0.596,0.638c0.286,0.33,0.572,0.659,0.572,0.659L262.014,201.391z"/>
						<path style="fill:#4F2E0E;" d="M265.916,200.77l-0.774-0.894l7.586-6.621l0.857,0.989L265.916,200.77z"/>
						<path style="fill:#4F2E0E;" d="M267.353,202.488c0,0-0.183-0.232-0.365-0.465c-0.177-0.237-0.379-0.454-0.379-0.454
							l7.741-6.439c0,0,0.222,0.241,0.419,0.502c0.203,0.257,0.405,0.514,0.405,0.514L267.353,202.488z"/>
						<path style="fill:#4F2E0E;" d="M268.738,204.25l-0.732-0.93l7.892-6.254l0.809,1.029L268.738,204.25z"/>
						<path style="fill:#4F2E0E;" d="M270.092,206.034c0,0-0.171-0.241-0.342-0.482c-0.168-0.244-0.358-0.471-0.358-0.471
							l8.038-6.064c0,0,0.21,0.252,0.396,0.521c0.19,0.267,0.38,0.533,0.38,0.533L270.092,206.034z"/>
						<path style="fill:#4F2E0E;" d="M268.799,210.008l-0.882-1.239l10.897-7.841l1.012,1.423L268.799,210.008z"/>
						<path style="fill:#4F2E0E;" d="M272.754,209.855c0,0-0.159-0.249-0.318-0.498c-0.155-0.252-0.33-0.491-0.33-0.491l8.329-5.66
							c0,0,0.192,0.265,0.364,0.543c0.177,0.275,0.354,0.551,0.354,0.551L272.754,209.855z"/>
						<path style="fill:#4F2E0E;" d="M273.963,211.742l-0.638-0.995l8.461-5.459l0.707,1.102L273.963,211.742z"/>
						<path style="fill:#4F2E0E;" d="M275.136,213.65c0,0-0.147-0.256-0.294-0.513c-0.142-0.26-0.307-0.505-0.307-0.505l8.588-5.256
							c0,0,0.182,0.273,0.34,0.559c0.164,0.284,0.327,0.567,0.327,0.567L275.136,213.65z"/>
						<path style="fill:#4F2E0E;" d="M276.252,215.592l-0.589-1.025l8.711-5.049l0.652,1.135L276.252,215.592z"/>
						<path style="fill:#4F2E0E;" d="M274.497,219.374c0,0-0.173-0.338-0.346-0.677c-0.165-0.343-0.366-0.667-0.366-0.667
							l11.765-6.466c0.001,0,0.229,0.373,0.42,0.765c0.199,0.389,0.399,0.777,0.399,0.777L274.497,219.374z"/>
						<path style="fill:#4F2E0E;" d="M278.436,219.704l-0.539-1.052l8.952-4.61l0.597,1.166L278.436,219.704z"/>
						<path style="fill:#4F2E0E;" d="M279.416,221.718c0,0-0.122-0.269-0.243-0.538c-0.117-0.272-0.254-0.534-0.254-0.534
							l9.06-4.395c0,0.001,0.151,0.291,0.282,0.591c0.135,0.298,0.27,0.596,0.27,0.596L279.416,221.718z"/>
						<path style="fill:#4F2E0E;" d="M280.338,223.759l-0.487-1.077l9.163-4.176l0.539,1.193L280.338,223.759z"/>
						<path style="fill:#4F2E0E;" d="M281.223,225.816c0,0-0.108-0.275-0.216-0.55c-0.102-0.278-0.231-0.544-0.231-0.544l9.26-3.955
							c0,0,0.142,0.295,0.257,0.603c0.12,0.304,0.241,0.609,0.241,0.609L281.223,225.816z"/>
						<path style="fill:#4F2E0E;" d="M279.012,229.36l-0.558-1.414l12.464-4.989l0.641,1.625L279.012,229.36z"/>
						<path style="fill:#4F2E0E;" d="M282.887,230.164c0,0-0.094-0.28-0.189-0.56c-0.09-0.282-0.201-0.556-0.201-0.556l9.446-3.487
							c0,0,0.123,0.304,0.223,0.616c0.105,0.31,0.211,0.62,0.211,0.62L282.887,230.164z"/>
						<path style="fill:#4F2E0E;" d="M283.605,232.286l-0.379-1.12l9.527-3.259l0.42,1.241L283.605,232.286z"/>
						<path style="fill:#4F2E0E;" d="M284.285,234.418c0,0-0.08-0.284-0.161-0.568c-0.073-0.287-0.179-0.563-0.179-0.563
							l9.603-3.029c0,0,0.115,0.307,0.198,0.624c0.09,0.315,0.18,0.63,0.18,0.63L284.285,234.418z"/>
						<path style="fill:#4F2E0E;" d="M284.896,236.573l-0.322-1.137l9.673-2.797l0.357,1.26L284.896,236.573z"/>
						<path style="fill:#4F2E0E;" d="M282.282,239.817c0,0-0.085-0.37-0.169-0.74c-0.089-0.37-0.201-0.733-0.201-0.733l12.979-3.433
							c0,0,0.126,0.418,0.229,0.842c0.099,0.426,0.198,0.851,0.198,0.851L282.282,239.817z"/>
						<path style="fill:#4F2E0E;" d="M286.02,241.091l-0.266-1.152l9.801-2.31l0.294,1.276L286.02,241.091z"/>
						<path style="fill:#4F2E0E;" d="M286.492,243.28c0,0-0.052-0.29-0.103-0.581c-0.065-0.289-0.13-0.577-0.13-0.577l9.853-2.074
							c0,0,0.071,0.319,0.143,0.639c0.058,0.322,0.116,0.644,0.116,0.644L286.492,243.28z"/>
						<path style="fill:#4F2E0E;" d="M286.885,245.485l-0.208-1.164l9.9-1.837l0.23,1.289L286.885,245.485z"/>
						<path style="fill:#4F2E0E;" d="M287.257,247.693c0,0-0.029-0.294-0.081-0.585c-0.052-0.291-0.105-0.582-0.105-0.582l9.941-1.6
							c0,0,0.057,0.322,0.114,0.645c0.057,0.322,0.091,0.648,0.091,0.648L287.257,247.693z"/>
						<path style="fill:#4F2E0E;" d="M284.243,250.602l-0.192-1.508l13.301-1.831l0.22,1.732L284.243,250.602z"/>
						<path style="fill:#4F2E0E;" d="M287.826,252.316c0,0-0.011-0.296-0.056-0.589c-0.037-0.293-0.075-0.586-0.075-0.586
							l10.008-1.104c0,0,0.041,0.325,0.082,0.649c0.048,0.324,0.063,0.651,0.063,0.651L287.826,252.316z"/>
						<path style="fill:#4F2E0E;" d="M287.996,254.551l-0.09-1.179l10.032-0.867l0.1,1.305L287.996,254.551z"/>
						<path style="fill:#4F2E0E;" d="M288.163,256.785l-0.087-1.18l10.05-0.628l0.094,1.305L288.163,256.785z"/>
						<path style="fill:#4F2E0E;" d="M288.219,259.026l-0.03-1.183l10.061-0.391l0.034,1.307L288.219,259.026z"/>
						<path style="fill:#4F2E0E;" d="M284.927,261.553l-0.04-1.522l13.424-0.222l0.042,1.744H284.927z"/>
					</g>
				</g>
			</g>
		</g>
		
			<ellipse transform="matrix(0.9976 -0.0689 0.0689 0.9976 -17.5708 14.0271)" style="fill:none;stroke:#4F2E0E;stroke-width:1.1283;stroke-miterlimit:10;" cx="194.419" cy="261.553" rx="89.888" ry="89.889"/>
		<path style="fill:none;stroke:#4F2E0E;stroke-width:1.8858;stroke-miterlimit:10;" d="M271.264,261.553
			c0,42.441-34.405,76.845-76.846,76.845c-42.439,0-76.845-34.404-76.845-76.845c0-42.441,34.405-76.846,76.845-76.846
			C236.859,184.706,271.264,219.111,271.264,261.553z"/>
		<path style="fill:none;stroke:#4F2E0E;stroke-width:3.0179;stroke-miterlimit:10;" d="M255.09,261.553
			c0,33.507-27.164,60.672-60.672,60.672c-33.508,0-60.671-27.165-60.671-60.672c0-33.509,27.163-60.673,60.671-60.673
			C227.926,200.879,255.09,228.044,255.09,261.553z"/>
		<path style="fill:none;stroke:#4F2E0E;stroke-width:0.9429;stroke-miterlimit:10;" d="M249.362,261.553
			c0,30.344-24.6,54.943-54.943,54.943c-30.343,0-54.942-24.599-54.942-54.943c0-30.346,24.6-54.943,54.942-54.943
			C224.762,206.609,249.362,231.207,249.362,261.553z"/>
		<g>
			<g>
				<g>
					<polygon style="fill:#4F2E0E;" points="237.08,218.892 195.681,242.114 194.419,261.553 					"/>
					<g>
						<g>
							<polygon style="fill:#FFFFFF;" points="234.713,222.015 213.531,259.774 195.802,260.926 							"/>
							<path style="fill:#4F2E0E;" d="M232.347,225.139l-19.141,34.12l-16.02,1.041L232.347,225.139 M237.08,218.892l-42.661,42.661
								l19.438-1.263L237.08,218.892L237.08,218.892z"/>
						</g>
					</g>
				</g>
				<g>
					<polygon style="fill:#4F2E0E;" points="151.758,304.213 193.156,280.99 194.419,261.553 					"/>
					<g>
						<g>
							<polygon style="fill:#FFFFFF;" points="175.306,263.331 193.035,262.179 154.124,301.09 							"/>
							<path style="fill:#4F2E0E;" d="M191.651,262.806l-35.16,35.161l19.14-34.12L191.651,262.806 M194.419,261.553l-19.438,1.262
								l-23.223,41.398L194.419,261.553L194.419,261.553z"/>
						</g>
					</g>
				</g>
				<g>
					<polygon style="fill:#4F2E0E;" points="237.081,304.213 213.856,260.29 194.419,261.553 					"/>
					<g>
						<g>
							<polygon style="fill:#FFFFFF;" points="193.712,280.679 194.876,262.767 234.189,302.079 							"/>
							<path style="fill:#4F2E0E;" d="M195.333,263.983l35.963,35.961l-37.027-19.576L195.333,263.983 M194.419,261.553
								l-1.263,19.438l43.925,23.223L194.419,261.553L194.419,261.553z"/>
						</g>
					</g>
				</g>
				<g>
					<polygon style="fill:#4F2E0E;" points="151.757,218.892 174.981,262.815 194.419,261.553 					"/>
					<g>
						<g>
							<polygon style="fill:#FFFFFF;" points="154.649,221.026 195.124,242.426 193.961,260.338 							"/>
							<path style="fill:#4F2E0E;" d="M157.542,223.161l37.026,19.576l-1.064,16.386L157.542,223.161 M151.757,218.892
								l42.661,42.661l1.263-19.439L151.757,218.892L151.757,218.892z"/>
						</g>
					</g>
				</g>
			</g>
			<g>
				<g>
					<polygon style="fill:#4F2E0E;" points="194.419,184.237 177.95,242.795 194.419,261.553 					"/>
					<g>
						<polygon style="fill:#FFFFFF;" points="195.105,189.211 210.127,242.622 195.105,259.731 						"/>
						<path style="fill:#4F2E0E;" d="M195.791,194.186l13.574,48.264l-13.574,15.46V194.186 M194.419,184.237v77.316l16.47-18.758
							L194.419,184.237L194.419,184.237z"/>
					</g>
				</g>
				<g>
					<polygon style="fill:#4F2E0E;" points="194.419,338.867 210.888,280.309 194.419,261.553 					"/>
					<g>
						<g>
							<polygon style="fill:#FFFFFF;" points="178.711,280.482 193.732,263.375 193.732,333.892 							"/>
							<path style="fill:#4F2E0E;" d="M193.046,265.196v63.722l-13.573-48.263L193.046,265.196 M194.419,261.553l-16.469,18.756
								l16.469,58.558V261.553L194.419,261.553z"/>
						</g>
					</g>
				</g>
				<g>
					<polygon style="fill:#4F2E0E;" points="271.734,261.553 210.888,242.795 194.419,261.553 					"/>
					<g>
						<g>
							<polygon style="fill:#FFFFFF;" points="195.934,262.239 267.178,262.239 211.111,279.522 							"/>
							<path style="fill:#4F2E0E;" d="M262.623,262.925l-51.29,15.811l-13.883-15.811H262.623 M271.734,261.553h-77.315
								l16.47,18.756L271.734,261.553L271.734,261.553z"/>
						</g>
					</g>
				</g>
				<g>
					<polygon style="fill:#4F2E0E;" points="117.103,261.553 177.95,280.309 194.419,261.553 					"/>
					<g>
						<g>
							<polygon style="fill:#FFFFFF;" points="121.658,260.867 177.727,243.581 192.903,260.867 							"/>
							<path style="fill:#4F2E0E;" d="M177.504,244.368l13.883,15.812h-65.173L177.504,244.368 M177.95,242.795l-60.847,18.758
								h77.316L177.95,242.795L177.95,242.795z"/>
						</g>
					</g>
				</g>
			</g>
		</g>
		<g>
			
				<line style="fill:none;stroke:#4F2E0E;stroke-width:0.9429;stroke-miterlimit:10;" x1="257.979" y1="325.112" x2="130.856" y2="197.991"/>
			
				<line style="fill:none;stroke:#4F2E0E;stroke-width:0.9429;stroke-miterlimit:10;" x1="257.979" y1="197.991" x2="130.856" y2="325.112"/>
		</g>
		<g>
			<path style="fill:#4F2E0E;" d="M197.631,172.976v9.69h-2.209l-1.311-4.405v4.405h-2.106v-9.69h2.106l1.413,4.363v-4.363H197.631z
				"/>
		</g>
		<g>
			<path style="fill:#4F2E0E;" d="M115.603,256.421l-1.122,9.69h-3.146c-0.288-1.489-0.542-3.183-0.763-5.082
				c-0.1,0.815-0.335,2.508-0.703,5.082h-3.128l-1.128-9.69h2.448l0.267,3.381l0.257,3.269c0.093-1.691,0.325-3.908,0.697-6.65
				h2.616c0.035,0.283,0.126,1.349,0.275,3.196l0.278,3.687c0.144-2.346,0.378-4.64,0.704-6.883H115.603z"/>
		</g>
		<g>
			<path style="fill:#4F2E0E;" d="M197.494,342.8h-2.34v-0.718c0-0.335-0.03-0.548-0.09-0.64c-0.06-0.092-0.16-0.138-0.299-0.138
				c-0.152,0-0.267,0.062-0.344,0.185c-0.078,0.124-0.117,0.312-0.117,0.563c0,0.323,0.044,0.567,0.131,0.731
				c0.083,0.164,0.321,0.361,0.712,0.592c1.122,0.666,1.828,1.212,2.12,1.639c0.291,0.427,0.436,1.115,0.436,2.064
				c0,0.69-0.08,1.199-0.242,1.526c-0.162,0.327-0.474,0.602-0.937,0.823c-0.463,0.222-1.002,0.332-1.616,0.332
				c-0.674,0-1.25-0.128-1.727-0.383c-0.477-0.255-0.789-0.581-0.937-0.976c-0.147-0.395-0.221-0.956-0.221-1.682v-0.634h2.34v1.179
				c0,0.363,0.033,0.597,0.099,0.7c0.066,0.104,0.183,0.156,0.35,0.156s0.292-0.066,0.374-0.197
				c0.082-0.132,0.123-0.327,0.123-0.587c0-0.57-0.078-0.943-0.233-1.119c-0.16-0.175-0.553-0.469-1.179-0.88
				c-0.627-0.414-1.042-0.716-1.245-0.903c-0.204-0.188-0.372-0.447-0.506-0.778c-0.134-0.331-0.2-0.754-0.2-1.269
				c0-0.742,0.095-1.285,0.284-1.628c0.189-0.343,0.496-0.611,0.918-0.805c0.423-0.194,0.934-0.29,1.532-0.29
				c0.654,0,1.212,0.106,1.673,0.317c0.461,0.211,0.766,0.478,0.916,0.799c0.149,0.321,0.224,0.867,0.224,1.637V342.8z"/>
		</g>
		<g>
			<path style="fill:#4F2E0E;" d="M275.129,256.421h4.201v1.939h-1.682v1.838h1.574v1.843h-1.574v2.131h1.85v1.939h-4.369V256.421z"
				/>
		</g>
	</g>
	<g>
		<g>
			<polygon style="fill:#D83633;" points="290.137,223.395 191.945,252.86 196.894,265.96 			"/>
			<polygon style="fill:#939598;" points="290.137,223.395 194.466,259.538 196.894,265.96 			"/>
		</g>
		<g>
			<polygon style="fill:#65BEBD;" points="98.7,295.428 196.894,265.96 191.945,252.86 			"/>
			<polygon style="fill:#939598;" points="98.7,295.428 194.371,259.283 191.945,252.86 			"/>
		</g>
	</g>
	<g>
		<path style="fill:#FBB040;" d="M204.219,261.553c0,5.412-4.388,9.802-9.801,9.802c-5.413,0-9.801-4.39-9.801-9.802
			c0-5.413,4.388-9.803,9.801-9.803C199.831,251.749,204.219,256.14,204.219,261.553z"/>
		<path style="fill:#FFFFFF;" d="M193.184,260.467c1.402,1.439,3.403,2.366,5.454,1.927c2.219-0.475,3.696-1.733,4.392-3.372
			c-1.116-3.51-4.401-6.054-8.28-6.054c-0.714,0-1.404,0.096-2.068,0.258C191.581,255.672,190.869,258.089,193.184,260.467z"/>
		<path style="fill:#A7A9AC;" d="M197.595,264.977c-3.096-0.12-5.994-1.586-7.691-4.243c-1.707-2.67-1.694-4.957-0.99-7.29
			c-2.592,1.764-4.296,4.736-4.296,8.109c0,5.412,4.388,9.802,9.801,9.802c5.133,0,9.336-3.948,9.759-8.971
			C202.592,264.041,200.344,265.083,197.595,264.977z"/>
	</g>
</g>
</svg>
