<svg xmlns="http://www.w3.org/2000/svg" viewBox="0 0 75.36 628.58">
    <title>needle</title>
    <g id="Layer_2" data-name="Layer 2">
        <g id="Object">
            <path
                d="M55.86,313.94a18.16,18.16,0,0,1-18.18,18.14V628.57L74.37,324.72a37.56,37.56,0,0,0-36.69-46.13V295.8A18.16,18.16,0,0,1,55.86,313.94Z"
                fill="#3a6477" />
            <path
                d="M0,316.18a37.43,37.43,0,0,0,1,8.53L37.68,628.58h0V332.08a18.14,18.14,0,1,1,0-36.28V278.59h0A37.64,37.64,0,0,0,0,316.18Z"
                fill="#4c819e" />
            <path
                d="M19.5,314.64a18.17,18.17,0,0,1,18.18-18.15V0L1,303.86A37.56,37.56,0,0,0,37.68,350V332.78A18.16,18.16,0,0,1,19.5,314.64Z"
                fill="#892121" />
            <path
                d="M75.36,312.39a37.5,37.5,0,0,0-1-8.53L37.68,0h0V296.49a18.15,18.15,0,1,1,0,36.29V350h0A37.64,37.64,0,0,0,75.36,312.39Z"
                fill="#682121" />
            

        </g>
    </g>
</svg>