<svg xmlns="http://www.w3.org/2000/svg" viewBox="0 0 76.36 880.58">

    <!-- kaaba -->
    <g id="Layer_2" data-name="Layer 2" transform="translate(2, 0)scale(2)">
        <g id="Object">
            <path d="M18 0L0 5v29l18 2l18-2V5z" fill="#000000"></path>
            <path fill="#292F33" d="M18 36l18-2V5L18 0z"></path>
            <path fill="#FFD983"
                d="M22.454 14.507v3.407l4.229.612V15.22zm7 1.181v3.239l3.299.478v-3.161zM18 13.756v3.513l1.683.244V14.04zm18 3.036l-.539-.091v3.096l.539.078z"></path>

            <path fill="#FFAC33"
                d="M0 16.792v3.083l.539-.078v-3.096zm16.317-2.752v3.473L18 17.269v-3.513zm-13.07 2.204v3.161l3.299-.478v-3.239zm6.07-1.024v3.306l4.229-.612v-3.407z"></path>
            <path fill="#FFD983"
                d="M21.389 15.131v-.042c0-.421-.143-.763-.32-.763c-.177 0-.32.342-.32.763v.042c-.208.217-.355.621-.355 1.103c0 .513.162.949.393 1.152c.064.195.163.33.282.33s.218-.135.282-.33c.231-.203.393-.639.393-1.152c-.001-.482-.147-.886-.355-1.103zm6.999 1.069v-.042c0-.421-.143-.763-.32-.763c-.177 0-.32.342-.32.763v.042c-.208.217-.355.621-.355 1.103c0 .513.162.949.393 1.152c.064.195.163.33.282.33s.218-.135.282-.33c.231-.203.393-.639.393-1.152c0-.481-.147-.885-.355-1.103zm6.017 1.03v-.039c0-.393-.134-.712-.299-.712c-.165 0-.299.319-.299.712v.039c-.194.203-.331.58-.331 1.03c0 .479.151.886.367 1.076c.059.182.152.308.263.308s.203-.126.263-.308c.215-.189.367-.597.367-1.076c0-.45-.136-.827-.331-1.03z"></path>
            <path fill="#FFAC33"
                d="M14.611 15.131v-.042c0-.421.143-.763.32-.763s.32.342.32.763v.042c.208.217.355.621.355 1.103c0 .513-.162.949-.393 1.152c-.064.195-.163.33-.282.33s-.218-.135-.282-.33c-.231-.203-.393-.639-.393-1.152c.001-.482.147-.886.355-1.103zM7.612 16.2v-.042c0-.421.143-.763.32-.763s.32.342.32.763v.042c.208.217.355.621.355 1.103c0 .513-.162.949-.393 1.152c-.064.195-.163.33-.282.33s-.218-.135-.282-.33c-.231-.203-.393-.639-.393-1.152c0-.481.147-.885.355-1.103zm-6.017 1.03v-.039c0-.393.134-.712.299-.712s.299.319.299.712v.039c.194.203.331.58.331 1.03c0 .479-.151.886-.367 1.076c-.059.182-.152.308-.263.308s-.204-.127-.264-.308c-.215-.189-.367-.597-.367-1.076c.001-.45.137-.827.332-1.03zM0 11.146v3.5l18-3.268V7.614z"></path>
            <path fill="#FFD983" d="M18 7.614v3.764l18 3.268v-3.5z"></path>
        </g>
    </g>
    <!-- Needle -->
    <g id="Needle" transform="translate(0, 130.36)">
        <path
            d="M55.86,313.94a18.16,18.16,0,0,1-18.18,18.14V628.57L74.37,324.72a37.56,37.56,0,0,0-36.69-46.13V295.8A18.16,18.16,0,0,1,55.86,313.94Z"
            fill="#3a6477" />
        <path
            d="M0,316.18a37.43,37.43,0,0,0,1,8.53L37.68,628.58h0V332.08a18.14,18.14,0,1,1,0-36.28V278.59h0A37.64,37.64,0,0,0,0,316.18Z"
            fill="#4c819e" />

        <path
            d="M19.5,314.64a18.17,18.17,0,0,1,18.18-18.15V0L1,303.86A37.56,37.56,0,0,0,37.68,350V332.78A18.16,18.16,0,0,1,19.5,314.64Z"
            fill="#892121" />
        <path
            d="M75.36,312.39a37.5,37.5,0,0,0-1-8.53L37.68,0h0V296.49a18.15,18.15,0,1,1,0,36.29V350h0A37.64,37.64,0,0,0,75.36,312.39Z"
            fill="#682121" />

    </g>


</svg>